<?xml version="1.0" encoding="utf-8"?>
<!-- Generator: Adobe Illustrator 16.0.0, SVG Export Plug-In . SVG Version: 6.00 Build 0)  -->
<!DOCTYPE svg PUBLIC "-//W3C//DTD SVG 1.1//EN" "http://www.w3.org/Graphics/SVG/1.1/DTD/svg11.dtd">
<svg version="1.1" id="Layer_1" xmlns="http://www.w3.org/2000/svg" xmlns:xlink="http://www.w3.org/1999/xlink" x="0px" y="0px"
	 width="280px" height="297px" viewBox="0 0 280 297" enable-background="new 0 0 280 297" xml:space="preserve">
<path fill="#00BFF3" d="M196,86.5c15.786-53-36.5-103.5-113.96-73.213C-5.709,47.596-12.383,175.303,32.5,182.782
	c31.312,5.218,30.754-31.484,63-59.282C124.5,98.5,181.252,136.015,196,86.5z"/>
<path fill="#FFC600" d="M143.445,133.472c-13.321,15.985,14.1,56.043,58.555,59.032c52,3.496,79.5-40.004,71.782-74.891
	C266.068,82.746,219.156,67.5,199.5,104C177.539,144.779,153.445,121.472,143.445,133.472z"/>
<path fill="#FF5252" d="M117,134.5C94.5,129,61.001,183.724,64,229c2.957,44.651,41.819,65.358,86.986,61.885
	C188.5,288,229,244.5,177,204.5C111.928,154.444,138.561,139.771,117,134.5z"/>
<path opacity="0.2" fill="#FFFFFF" d="M179.334,253c8.105-13.827-3.334-24.625-26.667-40.312s-48-9.688-45.333,26.312
	S168.001,272.333,179.334,253z"/>
<path opacity="0.2" fill="#FFFFFF" d="M252.667,109c-7.104-10.655-32-14-38,0s-27.334,41.333,3.333,39S259.334,119,252.667,109z"/>
<path opacity="0.2" fill="#FFFFFF" d="M176.103,73.667c-7.681,20.25-36.302,2-68.967,3.333c-29.916,1.221-43.323,8.458-49.801-9.333
	c-6.937-19.052,39.429-55.132,82.732-46C178,29.667,183.436,54.334,176.103,73.667z"/>
</svg>
